PathFileType	4	(X/Y/Z)	C:\Users\Biomechanik\SynologyDrive\AlexP\Athlete_03\Athlete_3_25_03_31\Deadlift_35kg_01\marker_experimental.trc
DataRate	CameraRate	NumFrames	NumMarkers	Units	OrigDataRate	OrigDataStartFrame	OrigNumFrames
200.000000	200.000000	4	55	mm	200.000000	257	2060
Frame#	Time	BL			BR			GLAB			RFHD			LFHD			C7			T6			SPINMOL			SPINM2			SPINM3			T12			BELTOL			BELT2			BELT3			SACROL			SACR2			SACR3			LTHOL			LTH2			LTH3			LSHAOL			LSHA2			LSHA3			LHEE			LTOE			LM5			RTHOL			RTH2			RTH3			RSHAOL			RSHA2			RSHA3			RHEE			RTOE			RM5			STRN			XIPH			LACR			LUAOL			LUA2			LUA3			LLAOL			LLA2			LLA3			LWRR			LWRU			RACR			RUAOL			RUA2			RUA3			RLAOL			RLA2			RLA3			RWRR			RWRU			
		X1	Y1	Z1	X2	Y2	Z2	X3	Y3	Z3	X4	Y4	Z4	X5	Y5	Z5	X6	Y6	Z6	X7	Y7	Z7	X8	Y8	Z8	X9	Y9	Z9	X10	Y10	Z10	X11	Y11	Z11	X12	Y12	Z12	X13	Y13	Z13	X14	Y14	Z14	X15	Y15	Z15	X16	Y16	Z16	X17	Y17	Z17	X18	Y18	Z18	X19	Y19	Z19	X20	Y20	Z20	X21	Y21	Z21	X22	Y22	Z22	X23	Y23	Z23	X24	Y24	Z24	X25	Y25	Z25	X26	Y26	Z26	X27	Y27	Z27	X28	Y28	Z28	X29	Y29	Z29	X30	Y30	Z30	X31	Y31	Z31	X32	Y32	Z32	X33	Y33	Z33	X34	Y34	Z34	X35	Y35	Z35	X36	Y36	Z36	X37	Y37	Z37	X38	Y38	Z38	X39	Y39	Z39	X40	Y40	Z40	X41	Y41	Z41	X42	Y42	Z42	X43	Y43	Z43	X44	Y44	Z44	X45	Y45	Z45	X46	Y46	Z46	X47	Y47	Z47	X48	Y48	Z48	X49	Y49	Z49	X50	Y50	Z50	X51	Y51	Z51	X52	Y52	Z52	X53	Y53	Z53	X54	Y54	Z54	X55	Y55	Z55	

258	1.285	2220.99609375	224.375686645508	432.0803222656254	202.4832153320312	219.5506896972656	326.8709716796876	1220.9736328125	926.3444824218751	667.442565917969	1162.386840820312	983.3332519531251	682.3950805664065	1296.468994140625	965.8036499023439	678.607360839844	1230.180053710938	1097.673095703125	457.4835205078127	1226.818481445312	1095.880126953125	272.0908508300784	1247.714599609375	1087.292846679688	229.7816314697268	1197.715087890625	1085.000122070312	223.6644592285159	1231.243041992188	1060.955078125	171.7090301513674	1228.8193359375	1015.399597167969	110.5341796875002	1242.264404296875	1003.013488769531	61.74507141113304	1191.796997070312	999.6052246093751	61.60155105590842	1220.265625	963.5394897460939	13.38948345184349	1245.604614257812	871.7177734375001	-72.8648986816404	1194.480590820312	869.3278198242189	-69.37631988525369	1220.224853515625	816.5452880859376	-100.0448989868162	1427.710327148438	576.3943481445314	121.6717834472659	1400.3037109375	502.9508666992189	123.3382186889651	1416.171020507812	531.3660888671876	161.6018371582034	1426.132446289062	306.2982482910157	222.9155578613284	1411.976196289062	253.475555419922	164.7616119384768	1416.555786132812	246.4200134277345	213.6888275146487	1310.522705078125	68.08013916015634	105.0009689331057	1320.5341796875	47.16106796264656	319.9849853515627	1421.136962890625	30.04349327087411	272.9285278320315	1015.913513183594	577.0186767578126	109.1237716674807	998.6363525390625	576.9237060546876	187.3596801757814	1019.663452148438	540.4680786132814	159.7354583740236	1005.369201660156	328.4469299316407	218.548065185547	1009.732604980469	252.7638092041016	239.2688293457033	1018.032104492188	272.0664367675782	194.2702789306643	1124.205078125	61.36391448974616	112.3214416503908	1102.010864257812	46.79486083984381	324.9898986816409	1005.118347167969	39.97021865844733	268.7202758789064	1228.845458984375	900.3358154296876	440.4730529785159	1230.988891601562	834.6805419921876	310.1057128906252	1388.225708007812	968.0328369140626	484.7492675781252	1478.297729492188	826.2972412109376	455.6735839843753	1504.17626953125	770.3750000000001	432.3791198730472	1461.339721679688	763.8340454101564	458.7976074218753	1508.5458984375	565.5552368164064	414.7866516113284	1528.807983398438	512.9561767578126	359.0382385253909	1507.715942382812	504.7871398925782	404.1405029296878	1502.2158203125	400.9328918457032	399.3264160156253	1425.747436523438	401.6169738769532	379.3276672363284	1078.387084960938	968.6875610351564	490.9317321777345	981.8179321289061	842.8178100585939	449.807098388672	979.8114013671874	778.1537475585939	446.3602905273439	943.7968749999999	797.9636230468751	419.7849121093752	919.4263916015624	576.6912231445312	385.0378417968752	931.1176147460936	508.3590393066407	424.4575195312502	919.2548217773436	514.3201293945312	376.6653137207033	926.0157470703124	427.3571472167969	393.0523071289064	1000.469116210937	406.8368225097657	362.5568847656252	
259	1.29	2220.995361328125	224.3784484863283	432.0815429687504	202.4846954345703	219.5526580810547	326.8687133789063	1220.686401367187	923.8248291015626	667.5434570312502	1162.082763671875	980.7732543945314	682.543395996094	1296.166381835937	963.2915649414064	678.793151855469	1229.91796875	1095.574096679688	457.9820251464846	1226.660522460938	1094.301147460938	272.6199340820315	1247.55419921875	1085.861450195312	230.2851715087893	1197.56640625	1083.566162109375	224.1279907226565	1231.1123046875	1059.703979492188	172.1307067871096	1228.739379882812	1014.344055175781	110.7663345336916	1242.19970703125	1002.057067871094	61.95016098022484	1191.72509765625	998.6489257812501	61.7781677246096	1220.177612304688	962.6620483398439	13.55239486694358	1245.615966796875	870.9011840820314	-73.05673980712868	1194.492309570312	868.5139770507814	-69.58992767333963	1220.24462890625	815.7668457031251	-100.3146133422849	1427.71630859375	575.8107910156251	121.7263336181643	1400.282104492188	502.3751220703126	123.5567703247073	1416.329833984375	530.8836059570314	161.7863616943362	1426.150756835938	306.231658935547	223.1620025634768	1411.980712890625	253.4602050781251	164.9655914306643	1416.566772460938	246.3550262451173	213.8826751708987	1310.521118164062	68.0885772705079	105.0178298950198	1320.532958984375	47.15922546386727	319.9850769042971	1421.140380859375	30.06235313415536	272.9109802246097	1015.726379394531	576.5126953125001	109.0521469116213	998.4646606445312	576.6107177734376	187.2986602783205	1019.461669921875	540.0792846679689	159.7527770996096	1005.242553710938	328.3668518066407	218.7113647460939	1009.654541015625	252.6668853759766	239.3757019042971	1017.954772949219	271.9981689453126	194.3803100585939	1124.203369140625	61.3623352050782	112.3194503784182	1101.996215820312	46.79940795898444	324.9845275878909	1005.096618652344	39.96527862548835	268.7103881835939	1228.6552734375	898.2324829101564	440.5445251464846	1230.901977539062	832.9658203125001	309.9426269531252	1387.915893554688	965.9174804687501	485.0330505371096	1478.04443359375	824.3208618164064	456.043640136719	1503.95703125	768.4102172851564	432.7369384765628	1461.09716796875	761.8495483398439	459.1060791015628	1508.38037109375	563.5910034179689	415.126647949219	1528.919921875	511.039276123047	359.4353637695315	1507.6064453125	502.8341369628907	404.4277038574222	1502.132690429688	399.0205688476564	399.5590820312503	1425.766845703125	399.6593322753907	378.9785156250003	1078.224853515625	966.4177856445314	491.2043457031252	981.7496337890624	840.6117553710939	450.0602416992189	979.7352905273436	775.9506225585939	446.5650939941408	943.6693115234374	795.7675170898439	420.0999145507814	919.2633056640624	574.5554809570312	385.1120910644533	931.0441894531249	506.1573181152344	424.390106201172	919.0325317382811	512.1957397460938	376.6566772460939	925.8032226562499	425.2450561523438	392.9344482421877	999.9708862304686	404.8699035644532	361.9312438964845	
260	1.295	2220.99462890625	224.3811035156251	432.0826416015629	202.4862976074218	219.5546722412109	326.8657226562501	1220.399169921875	921.3487548828126	667.641540527344	1161.778564453125	978.2541503906251	682.683776855469	1295.8623046875	960.8251953125001	678.9757080078127	1229.657592773438	1093.506591796875	458.4648742675784	1226.502197265625	1092.736450195312	273.1368103027346	1247.393310546875	1084.443481445312	230.7762908935549	1197.417236328125	1082.148315429688	224.5794525146487	1230.982177734375	1058.463012695312	172.5406494140627	1228.657470703125	1013.293334960938	110.9944381713869	1242.13525390625	1001.102478027344	62.1524353027346	1191.650756835938	997.6938476562501	61.95363235473655	1220.087036132812	961.7802124023439	13.71868610382102	1245.624267578125	870.0848388671876	-73.23937988281227	1194.5	867.7011108398439	-69.79611206054666	1220.260620117188	814.9885864257814	-100.5752029418943	1427.723266601562	575.2272338867189	121.7819976806643	1400.263916015625	501.8023376464845	123.7770233154299	1416.475952148438	530.4010620117189	161.9669952392581	1426.171264648438	306.1663818359376	223.4070587158206	1411.987182617188	253.4428253173829	165.1712799072268	1416.579345703125	246.2874603271485	214.0781707763674	1310.517578125	68.09528350830087	105.0317840576174	1320.5322265625	47.15723037719734	319.9849243164065	1421.143798828125	30.0795211791993	272.8950195312503	1015.53759765625	576.0068969726564	108.9836578369142	998.2901611328125	576.2948608398439	187.2401580810549	1019.258361816406	539.6900024414064	159.7725067138674	1005.112365722656	328.2843017578126	218.8783416748049	1009.578063964844	252.5679779052735	239.4870758056643	1017.875305175781	271.9286804199219	194.4946594238283	1124.202270507812	61.36037826538093	112.3174667358401	1101.982421875	46.80332183837897	324.9792785644534	1005.075378417969	39.96018600463874	268.7014770507814	1228.463623046875	896.1599731445314	440.6150207519534	1230.807739257812	831.2730102539064	309.7843933105471	1387.608032226562	963.8328247070314	485.3111877441409	1477.802490234375	822.3748779296876	456.3979797363284	1503.748291015625	766.4775390625001	433.0770568847659	1460.87060546875	759.8975219726564	459.3993835449222	1508.232788085938	561.6570434570314	415.4447021484378	1529.037963867188	509.1536560058595	359.8060302734378	1507.513671875	500.9109191894532	404.691589355469	1502.065673828125	397.1365051269532	399.7661743164065	1425.8017578125	397.7296752929689	378.6206359863284	1078.060302734375	964.1846923828126	491.4675292968752	981.6820678710936	838.4387207031251	450.2999267578127	979.6488037109374	773.7828369140626	446.7623291015627	943.5299072265624	793.6076660156251	420.4068603515627	919.0851440429686	572.4554443359375	385.1858215332033	930.9609985351561	503.9956359863282	424.3280639648439	918.7999877929686	510.1060180664063	376.6538696289064	925.5817871093749	423.1746215820313	392.8337402343752	999.4833374023436	402.9309997558594	361.3375549316408	
261	1.3	2220.994140625	224.383514404297	432.0834960937504	202.4880676269531	219.5565795898438	326.8618774414063	1220.112548828125	918.9162597656251	667.7357177734377	1161.474853515625	975.7758178710939	682.8156738281252	1295.557739257812	958.4042358398439	679.153991699219	1229.3994140625	1091.471435546875	458.9318542480471	1226.343383789062	1091.187255859375	273.6406555175784	1247.232543945312	1083.0390625	231.2540588378909	1197.268432617188	1080.74755859375	225.0179901123049	1230.852661132812	1057.232421875	172.9383239746096	1228.57373046875	1012.247314453125	111.2179794311526	1242.071044921875	1000.149658203125	62.35059356689476	1191.57373046875	996.7400512695314	62.12730407714866	1219.994140625	960.8939208984376	13.88697624206565	1245.628662109375	869.2678222656251	-73.41335296630837	1194.5029296875	866.8879394531251	-69.99565887451151	1220.272338867188	814.2090454101564	-100.8263015747068	1427.732299804688	574.6445312500001	121.8407440185549	1400.253173828125	501.2328186035157	124.0008697509768	1416.609619140625	529.9186401367189	162.1460723876956	1426.194213867188	306.1007690429689	223.653015136719	1411.995849609375	253.4228820800782	165.3798522949221	1416.593872070312	246.2165679931641	214.2764739990237	1310.511840820312	68.10026550292977	105.0430145263674	1320.531982421875	47.15513992309578	319.984558105469	1421.146606445312	30.09246253967294	272.8832702636722	1015.349792480469	575.4985961914064	108.9187011718752	998.1130981445312	575.9739990234376	187.1839141845705	1019.05517578125	539.2980346679689	159.7950134277346	1004.979797363281	328.1992492675782	219.0493774414064	1009.502868652344	252.4668731689454	239.603225708008	1017.794067382812	271.8578491210938	194.6138305664064	1124.2021484375	61.35805892944343	112.3156051635744	1101.969604492188	46.8067359924317	324.9741210937502	1005.054870605469	39.95484542846686	268.693817138672	1228.270874023438	894.1195068359376	440.6842956542971	1230.70458984375	829.6029052734376	309.6309509277346	1387.303100585938	961.7795410156251	485.5840454101565	1477.572143554688	820.4602661132814	456.7364501953128	1503.550048828125	764.5772705078126	433.4007568359378	1460.658935546875	757.9782714843751	459.6775207519534	1508.102661132812	559.7537841796876	415.739929199219	1529.162475585938	507.2996826171876	360.1493225097659	1507.438232421875	499.0179443359376	404.9307250976565	1502.015869140625	395.2814331054689	399.9458618164065	1425.855102539062	395.8277893066407	378.2516784667972	1077.893432617188	961.9899902343751	491.7218627929689	981.6106567382811	836.3011474609376	450.5265502929689	979.5502929687499	771.6530151367189	446.9512023925783	943.3778686523436	791.4859008789064	420.7033996582033	918.8918457031249	570.3924560546875	385.2611389160158	930.8678588867186	501.8762512207032	424.2747192382814	918.5580444335936	508.0520629882813	376.6597290039064	925.3535766601561	421.1453857421876	392.7531738281252	999.0140991210936	401.0153808593751	360.7855834960939	
